<?xml version="1.0" encoding="UTF-8"?>
<svg id="Layer_1" data-name="Layer 1" xmlns="http://www.w3.org/2000/svg" xmlns:xlink="http://www.w3.org/1999/xlink" viewBox="0 0 197.11 54.46">
  <defs>
    <style>
      .cls-1 {
        fill: #fff;
      }

      .cls-2 {
        fill: #0f1539;
      }

      .cls-3 {
        fill: url(#linear-gradient);
      }

      .cls-4 {
        fill: #d5202a;
      }
    </style>
    <linearGradient id="linear-gradient" x1="59.96" y1="21.55" x2="84.16" y2="21.55" gradientUnits="userSpaceOnUse">
      <stop offset=".19" stop-color="#1980b6"/>
      <stop offset="1" stop-color="#4dc7ee"/>
    </linearGradient>
  </defs>
  <g>
    <path class="cls-1" d="M7.53,34.24V8.81h10.78c1.17,0,2.25.24,3.24.73.99.49,1.84,1.13,2.56,1.93.72.8,1.28,1.71,1.68,2.72.41,1.02.61,2.04.61,3.06s-.19,2.12-.57,3.13c-.38,1.01-.92,1.92-1.61,2.7-.69.79-1.53,1.42-2.51,1.9-.98.48-2.05.72-3.22.72h-6.02v8.52h-4.94ZM12.47,21.38h5.73c.91,0,1.67-.37,2.27-1.11.61-.74.91-1.74.91-3.01,0-.64-.1-1.22-.29-1.74-.19-.51-.44-.95-.75-1.31s-.67-.63-1.09-.81-.84-.27-1.27-.27h-5.52v8.24Z"/>
    <path class="cls-1" d="M32.17,34.6c-.91,0-1.75-.15-2.54-.45s-1.47-.72-2.04-1.25-1.02-1.16-1.34-1.88c-.32-.72-.48-1.5-.48-2.36s.2-1.7.59-2.45.94-1.39,1.65-1.92c.7-.52,1.55-.94,2.52-1.24.98-.3,2.05-.45,3.22-.45.84,0,1.65.07,2.45.22.8.14,1.51.35,2.13.61v-1.07c0-1.24-.35-2.2-1.06-2.86-.7-.67-1.75-1-3.13-1-1,0-1.98.18-2.94.54s-1.93.88-2.94,1.58l-1.47-3.04c2.41-1.6,5.01-2.4,7.81-2.4s4.79.66,6.28,1.99c1.49,1.33,2.24,3.24,2.24,5.75v5.84c0,.5.09.86.27,1.07.18.21.47.33.88.36v4.08c-.81.17-1.52.25-2.11.25-.91,0-1.61-.2-2.09-.61-.49-.41-.79-.94-.91-1.61l-.11-1.04c-.84,1.1-1.85,1.93-3.04,2.51-1.19.57-2.47.86-3.83.86ZM33.53,31.09c.81,0,1.58-.14,2.31-.43.73-.29,1.29-.67,1.7-1.15.52-.41.79-.86.79-1.36v-2.15c-.57-.21-1.19-.39-1.86-.52-.67-.13-1.31-.2-1.93-.2-1.24,0-2.26.28-3.04.84-.79.56-1.18,1.27-1.18,2.13,0,.81.31,1.49.93,2.02s1.38.81,2.29.81Z"/>
    <path class="cls-1" d="M45.38,37.89c.41.12.8.21,1.18.27.38.06.7.09.97.09.31,0,.6-.06.86-.18.26-.12.5-.33.72-.63.22-.3.43-.71.65-1.24.22-.53.44-1.18.68-1.97l-7.41-18.77h4.94l5.09,14.61,4.51-14.61h4.51l-7.88,22.49c-.45,1.31-1.23,2.39-2.33,3.22-1.1.84-2.46,1.25-4.08,1.25-.38,0-.77-.03-1.16-.09-.39-.06-.81-.16-1.24-.3v-4.15Z"/>
    <path class="cls-3" d="M74.6,19.7l5.84,10.03c1.43,2.33,2.83,3.9,3.72,4.26v.25h-11.24v-.25c.82-.5,1.18-1.4,1.18-2.4,0-1.07-.54-2.33-1.29-3.54l-2.58-4.83-3.11,4.98c-.68,1.11-1.15,2.29-1.15,3.33,0,1.11.47,2.11,1.4,2.47v.25h-7.41v-.25c1.33-.57,3.8-3.19,5.48-5.76l3.97-6.05-5.26-8.81c-1.47-2.36-2.83-3.9-3.79-4.26v-.25h11.28v.25c-.86.68-1.15,1.61-1.15,2.54s.36,1.83.89,2.72l2.47,4.4,2.47-3.87c.68-1.07,1.15-2.22,1.15-3.33,0-1.04-.36-1.97-1.25-2.47v-.25h7.13v.25c-1.29.61-3.9,3.19-5.59,5.76l-3.15,4.83Z"/>
    <path class="cls-1" d="M106.73,27.69c0,1.07-.22,2.02-.64,2.83-.43.81-1.02,1.49-1.77,2.04-.75.55-1.62.97-2.61,1.25-.99.29-2.05.43-3.17.43h-12.28V8.81h13.61c.88,0,1.68.19,2.4.57.72.38,1.33.88,1.83,1.49s.89,1.3,1.16,2.08c.27.78.41,1.56.41,2.35,0,1.24-.31,2.41-.93,3.49-.62,1.09-1.53,1.89-2.72,2.42,1.46.43,2.61,1.2,3.46,2.31.85,1.11,1.27,2.5,1.27,4.17ZM91.18,13.04v6.41h6.59c.84,0,1.55-.29,2.13-.86.58-.57.88-1.36.88-2.36s-.27-1.75-.81-2.33-1.2-.86-1.99-.86h-6.8ZM101.75,26.76c0-.45-.08-.89-.23-1.31-.16-.42-.36-.78-.63-1.09-.26-.31-.57-.56-.93-.73s-.75-.27-1.18-.27h-7.59v6.7h7.34c.45,0,.88-.08,1.27-.25.39-.17.73-.4,1.02-.7.29-.3.51-.65.68-1.06.17-.41.25-.84.25-1.29Z"/>
    <path class="cls-1" d="M116.65,34.6c-1.53,0-2.9-.26-4.12-.79s-2.25-1.24-3.1-2.13-1.5-1.93-1.95-3.1c-.45-1.17-.68-2.4-.68-3.69s.23-2.55.68-3.72c.45-1.17,1.1-2.2,1.95-3.1s1.88-1.61,3.1-2.13c1.22-.52,2.59-.79,4.12-.79s2.89.26,4.1.79c1.21.53,2.23,1.24,3.08,2.13s1.5,1.93,1.95,3.1c.45,1.17.68,2.41.68,3.72s-.23,2.52-.68,3.69c-.45,1.17-1.1,2.2-1.93,3.1s-1.86,1.61-3.08,2.13-2.59.79-4.12.79ZM111.74,24.89c0,.84.13,1.59.38,2.27.25.68.6,1.27,1.04,1.77.44.5.96.89,1.56,1.16.6.27,1.24.41,1.93.41s1.34-.14,1.93-.41c.6-.27,1.12-.66,1.56-1.16.44-.5.79-1.1,1.04-1.79.25-.69.38-1.46.38-2.29s-.13-1.56-.38-2.26c-.25-.69-.6-1.29-1.04-1.79-.44-.5-.96-.89-1.56-1.16-.6-.27-1.24-.41-1.93-.41s-1.34.14-1.93.43-1.12.68-1.56,1.18c-.44.5-.79,1.1-1.04,1.79-.25.69-.38,1.45-.38,2.26Z"/>
    <path class="cls-1" d="M138.71,19.63c-1.46.02-2.76.3-3.9.84s-1.97,1.34-2.47,2.42v11.35h-4.8V15.48h4.41v4.01c.33-.64.73-1.22,1.18-1.74s.94-.96,1.47-1.34c.53-.38,1.06-.67,1.59-.88.54-.2,1.06-.3,1.56-.3h.59c.13,0,.26.01.38.04v4.37Z"/>
    <path class="cls-1" d="M146.08,34.6c-1.29,0-2.48-.25-3.58-.75-1.1-.5-2.04-1.19-2.83-2.08-.79-.88-1.4-1.92-1.84-3.1-.44-1.18-.66-2.45-.66-3.81s.21-2.63.63-3.8c.42-1.17,1-2.2,1.74-3.08.74-.88,1.62-1.58,2.65-2.08,1.03-.5,2.15-.75,3.37-.75,1.38,0,2.63.33,3.74,1,1.11.67,1.97,1.54,2.6,2.61v-10.67h4.8v20.63c0,.5.08.86.25,1.07.17.21.45.33.86.36v4.08c-.84.17-1.52.25-2.04.25-.86,0-1.56-.21-2.11-.64-.55-.43-.86-.99-.93-1.68l-.11-1.18c-.69,1.19-1.63,2.1-2.81,2.7-1.18.61-2.42.91-3.71.91ZM147.34,30.52c.45,0,.92-.08,1.4-.23.48-.15.92-.38,1.33-.66.41-.29.77-.62,1.09-1,.32-.38.57-.8.73-1.25v-4.48c-.19-.52-.46-1.01-.81-1.45-.35-.44-.74-.82-1.18-1.15-.44-.32-.91-.58-1.4-.77-.49-.19-.97-.29-1.45-.29-.72,0-1.38.16-1.99.47-.61.31-1.13.73-1.56,1.27-.43.54-.76,1.15-1,1.84-.24.69-.36,1.41-.36,2.15,0,.79.13,1.52.39,2.18s.62,1.25,1.07,1.75c.45.5,1,.9,1.63,1.18.63.29,1.33.43,2.1.43Z"/>
    <path class="cls-1" d="M167.97,34.6c-1.5,0-2.86-.26-4.08-.77-1.22-.51-2.26-1.21-3.12-2.1-.86-.88-1.52-1.91-1.99-3.08-.47-1.17-.7-2.4-.7-3.69s.23-2.6.68-3.78c.45-1.18,1.11-2.22,1.97-3.12s1.9-1.61,3.13-2.13c1.23-.52,2.61-.79,4.14-.79s2.89.26,4.1.79c1.2.53,2.23,1.23,3.08,2.11.85.88,1.49,1.91,1.93,3.08s.66,2.39.66,3.65c0,.31,0,.61-.02.9-.01.29-.04.53-.09.72h-14.5c.07.74.25,1.4.54,1.97.29.57.66,1.06,1.11,1.47.45.41.97.72,1.54.93s1.17.32,1.79.32c.95,0,1.86-.23,2.7-.7.85-.47,1.43-1.08,1.74-1.84l4.12,1.15c-.69,1.43-1.8,2.61-3.31,3.53-1.52.92-3.33,1.38-5.43,1.38ZM172.84,23.28c-.12-1.41-.64-2.54-1.56-3.38-.92-.85-2.04-1.27-3.35-1.27-.65,0-1.25.11-1.81.34-.56.23-1.06.54-1.49.95-.43.41-.78.9-1.06,1.47s-.44,1.21-.48,1.9h9.74Z"/>
    <path class="cls-1" d="M189.74,19.63c-1.46.02-2.76.3-3.9.84s-1.97,1.34-2.47,2.42v11.35h-4.8V15.48h4.41v4.01c.33-.64.73-1.22,1.18-1.74s.94-.96,1.47-1.34c.53-.38,1.06-.67,1.59-.88.54-.2,1.06-.3,1.56-.3h.59c.13,0,.26.01.38.04v4.37Z"/>
  </g>
  <g>
    <g>
      <path class="cls-1" d="M108.81,44.34v-4.88h1.72c.4,0,.75.06,1.04.2.29.13.51.32.67.56.16.24.23.54.23.89s-.08.63-.23.88c-.16.25-.38.43-.67.56s-.63.2-1.04.2h-1.53l.16-.17v1.77h-.35ZM109.16,42.59l-.16-.17h1.53c.52,0,.91-.12,1.18-.35.27-.23.4-.55.4-.97s-.13-.75-.4-.98c-.27-.23-.66-.35-1.18-.35h-1.53l.16-.17v2.99Z"/>
      <path class="cls-1" d="M114.93,44.36c-.34,0-.65-.08-.92-.24-.27-.16-.48-.38-.64-.66-.16-.28-.24-.6-.24-.96s.08-.68.24-.96c.16-.28.37-.49.64-.65.27-.16.57-.24.92-.24s.65.08.92.24c.27.16.48.38.64.65.16.28.23.6.23.96s-.08.68-.23.96c-.16.28-.37.5-.64.66-.27.16-.58.24-.92.24ZM114.93,44.05c.27,0,.52-.06.74-.19s.39-.31.52-.54.19-.5.19-.8-.06-.58-.19-.81c-.12-.23-.3-.41-.52-.54-.22-.13-.47-.19-.74-.19s-.52.06-.74.19c-.22.13-.39.31-.51.54-.13.23-.19.5-.19.81s.06.57.19.8.3.41.51.54c.22.13.46.19.74.19Z"/>
      <path class="cls-1" d="M118.38,44.34l-1.36-3.64h.33l1.26,3.45h-.14l1.3-3.45h.3l1.29,3.45h-.15l1.29-3.45h.32l-1.36,3.64h-.32l-1.26-3.31h.11l-1.27,3.31h-.32Z"/>
      <path class="cls-1" d="M124.96,44.36c-.36,0-.68-.08-.96-.24-.28-.16-.5-.38-.65-.66-.16-.28-.24-.6-.24-.96s.07-.68.22-.96c.15-.28.35-.49.62-.65.26-.16.55-.24.88-.24s.62.08.88.23.46.37.61.65c.15.28.22.6.22.96,0,.01,0,.03,0,.05,0,.02,0,.03,0,.05h-3.17v-.27h2.98l-.14.13c0-.28-.05-.54-.17-.76-.12-.23-.29-.4-.49-.53s-.44-.19-.71-.19-.5.06-.71.19c-.21.13-.37.3-.49.53s-.18.48-.18.77v.06c0,.3.07.56.2.79.13.23.31.41.54.54.23.13.49.19.78.19.23,0,.44-.04.64-.13s.37-.21.5-.38l.2.23c-.16.2-.35.34-.59.44-.24.1-.49.15-.77.15Z"/>
      <path class="cls-1" d="M127.6,44.34v-3.64h.33v1l-.03-.11c.1-.29.27-.52.51-.68.24-.16.54-.24.89-.24v.34s-.03,0-.04,0c-.01,0-.03,0-.04,0-.4,0-.71.13-.93.38s-.34.61-.34,1.06v1.9h-.34Z"/>
      <path class="cls-1" d="M131.67,44.36c-.36,0-.68-.08-.96-.24-.28-.16-.5-.38-.65-.66-.16-.28-.24-.6-.24-.96s.07-.68.22-.96c.15-.28.35-.49.62-.65.26-.16.55-.24.88-.24s.62.08.88.23.46.37.61.65c.15.28.22.6.22.96,0,.01,0,.03,0,.05,0,.02,0,.03,0,.05h-3.17v-.27h2.98l-.14.13c0-.28-.05-.54-.17-.76-.12-.23-.29-.4-.49-.53s-.44-.19-.71-.19-.5.06-.71.19c-.21.13-.37.3-.49.53s-.18.48-.18.77v.06c0,.3.07.56.2.79.13.23.31.41.54.54.23.13.49.19.78.19.23,0,.44-.04.64-.13s.37-.21.5-.38l.2.23c-.16.2-.35.34-.59.44-.24.1-.49.15-.77.15Z"/>
      <path class="cls-1" d="M135.69,44.36c-.33,0-.64-.08-.9-.23-.27-.16-.48-.37-.64-.65-.16-.28-.23-.6-.23-.96s.08-.69.23-.97c.16-.28.37-.49.64-.65.27-.16.57-.23.9-.23.32,0,.6.07.85.22.25.15.46.36.6.63.15.27.22.6.22.99s-.07.7-.22.98c-.15.28-.35.49-.6.64-.25.15-.54.22-.86.22ZM135.71,44.05c.27,0,.52-.06.74-.19s.39-.31.51-.54.19-.5.19-.8-.06-.58-.19-.81c-.13-.23-.3-.41-.51-.54-.22-.13-.46-.19-.74-.19s-.52.06-.74.19c-.22.13-.39.31-.51.54-.13.23-.19.5-.19.81s.06.57.19.8.3.41.51.54c.22.13.46.19.74.19ZM137.16,44.34v-1.19l.06-.63-.07-.64v-2.71h.34v5.18h-.34Z"/>
      <path class="cls-1" d="M140.71,44.34v-5.18h.34v2.71l-.07.64.05.63v1.19h-.33ZM142.51,44.36c-.32,0-.6-.07-.86-.22s-.46-.36-.6-.64c-.15-.28-.22-.61-.22-.98s.07-.72.22-.99c.15-.27.35-.49.6-.63s.54-.22.86-.22c.34,0,.64.08.91.23.27.16.48.37.63.65s.23.6.23.97-.08.68-.23.96c-.15.28-.36.5-.63.65-.27.16-.57.23-.91.23ZM142.49,44.05c.27,0,.52-.06.74-.19s.39-.31.52-.54.19-.5.19-.8-.06-.58-.19-.81c-.13-.23-.3-.41-.52-.54-.22-.13-.47-.19-.74-.19s-.52.06-.74.19c-.22.13-.39.31-.51.54-.13.23-.19.5-.19.81s.06.57.19.8.3.41.51.54c.22.13.46.19.74.19Z"/>
      <path class="cls-1" d="M145.16,45.72c-.17,0-.32-.03-.46-.08-.14-.06-.27-.14-.37-.24l.17-.26c.09.1.19.17.3.22.11.05.23.07.37.07.17,0,.31-.05.44-.14.13-.09.24-.26.35-.51l.25-.56.05-.06,1.52-3.45h.35l-1.84,4.14c-.1.22-.2.4-.31.53s-.24.22-.37.28c-.13.06-.28.08-.44.08ZM146.2,44.43l-1.66-3.73h.36l1.51,3.43-.21.31Z"/>
    </g>
    <g>
      <path class="cls-1" d="M150,42.06c0-2.58,2.1-4.74,4.77-4.73,2.61,0,4.74,2.11,4.74,4.74,0,2.66-2.19,4.78-4.83,4.74-2.6-.04-4.69-2.16-4.69-4.75ZM151.52,42.07c0,1.74,1.41,3.19,3.18,3.23,1.79.03,3.29-1.4,3.3-3.22,0-1.79-1.44-3.21-3.19-3.23-1.84-.03-3.3,1.46-3.29,3.22Z"/>
      <path class="cls-1" d="M175.04,42.81c.32-.95.64-1.9.96-2.85h.77c.23,1.38.46,2.75.69,4.13h-.77c-.15-.86-.29-1.71-.44-2.56,0,0-.01,0-.02,0-.1.28-.19.57-.29.85-.1.28-.19.57-.29.85-.1.29-.19.57-.29.86h-.7c-.29-.86-.57-1.71-.86-2.57,0,0-.01,0-.02,0-.15.86-.3,1.71-.45,2.57h-.77c.24-1.38.48-2.75.71-4.13h.77c.32.95.64,1.9.95,2.85,0,0,.01,0,.02,0Z"/>
      <path class="cls-1" d="M172.16,42.01c-.02.89-.41,1.53-1.15,1.95-.25.15-.54.21-.83.23-.31.02-.61,0-.9-.11-.41-.14-.73-.39-1-.73-.27-.34-.41-.73-.44-1.17-.04-.57.11-1.09.48-1.54.37-.45.85-.71,1.43-.78.41-.05.8,0,1.17.19.67.35,1.09.89,1.2,1.64.02.11.02.23.03.31ZM168.63,42.06s0,.09,0,.14c.02.18.06.36.15.52.23.4.58.64,1.04.7.7.09,1.19-.32,1.4-.77.13-.28.16-.58.11-.88-.09-.57-.61-1.12-1.29-1.14-.47-.01-.84.16-1.13.52-.21.26-.29.56-.29.91Z"/>
      <path class="cls-1" d="M181.76,44.09h-.82c-.11-.28-.21-.56-.32-.84h-1.7c-.11.28-.22.56-.33.84h-.81c0-.06,1.51-3.95,1.59-4.13h.8c.53,1.37,1.06,2.75,1.59,4.13ZM179.77,41.07c-.07.14-.54,1.35-.54,1.4.13.01,1.03,0,1.09,0-.18-.46-.36-.92-.55-1.39Z"/>
      <path class="cls-1" d="M162.71,43.25h-1.7c-.11.28-.22.56-.34.84h-.82c.53-1.38,1.07-2.75,1.6-4.13h.8c.53,1.37,1.06,2.75,1.59,4.13h-.82c-.11-.28-.21-.56-.32-.84ZM162.42,42.47c-.18-.47-.36-.93-.54-1.39,0,0-.01,0-.02,0-.18.46-.36.92-.55,1.39h1.11Z"/>
      <path class="cls-1" d="M187.9,42.64c-.08.11-.14.22-.21.32-.24.36-.47.72-.71,1.08-.02.03-.04.05-.08.05-.27,0-.54,0-.8,0,0,0-.02,0-.04,0,.02-.03.03-.05.04-.07.43-.66.87-1.32,1.3-1.97.06-.08.06-.08,0-.17-.4-.62-.81-1.23-1.21-1.85-.01-.02-.02-.04-.04-.07.03,0,.05,0,.07,0,.25,0,.5,0,.75,0,.05,0,.07.02.1.05.26.4.53.81.79,1.21.01.02.02.03.04.06.01-.02.03-.03.04-.05.27-.4.53-.8.79-1.21.03-.05.06-.07.12-.07.24,0,.48,0,.72,0h.07s0,0,0,0c0,0,0,0,0,0,0,0,0,0,0,0,0,0,0,.02-.01.02-.43.65-.85,1.3-1.28,1.95,0,0,0,0,0,.01.46.7.92,1.41,1.39,2.12h-.89c-.31-.48-.63-.95-.95-1.45Z"/>
      <path class="cls-1" d="M166.56,39.96h.83s0,.03-.02.05c-.27.53-.54,1.05-.82,1.58-.11.22-.22.44-.34.65-.03.05-.04.1-.04.15,0,.54,0,1.07,0,1.61v.08c-.06.02-.71.02-.8,0v-.08c0-.54,0-1.08,0-1.62,0-.05-.01-.1-.04-.15-.38-.74-.77-1.47-1.15-2.21,0-.02-.02-.03-.03-.06h.85c.25.49.51.98.77,1.48.26-.5.51-.99.77-1.48Z"/>
      <path class="cls-1" d="M184.25,39.96v.77s-.05,0-.08,0c-.2,0-.4,0-.6,0-.03,0-.05,0-.08,0v3.35h-.8v-3.35h-.74c0-.26,0-.51,0-.77h2.29Z"/>
      <path class="cls-1" d="M185.51,44.09h-.78v-4.12h.78v4.12Z"/>
      <path class="cls-4" d="M189.74,46.35c.01.44-.35.87-.88.87-.48,0-.88-.4-.87-.88,0-.46.35-.87.87-.87.55,0,.89.46.87.87Z"/>
      <path class="cls-4" d="M183.51,46.35c0,.48-.39.87-.88.87-.48,0-.87-.39-.87-.87,0-.45.35-.87.88-.87.56,0,.89.46.87.87Z"/>
      <path class="cls-4" d="M186.62,46.35c0,.49-.4.88-.9.87-.5-.01-.87-.43-.85-.89.01-.44.36-.85.88-.85.54,0,.88.44.87.88Z"/>
      <path class="cls-2" d="M151.52,42.07c0-1.76,1.45-3.25,3.29-3.22,1.75.03,3.19,1.45,3.19,3.23,0,1.82-1.51,3.25-3.3,3.22-1.77-.03-3.19-1.48-3.18-3.23ZM154.76,39.05c-1.7,0-3.02,1.36-3.04,2.99-.02,1.67,1.34,3.05,3.03,3.06,1.67,0,3.01-1.33,3.04-2.97.03-1.67-1.32-3.07-3.03-3.08Z"/>
      <path class="cls-1" d="M154.76,39.05c1.71,0,3.06,1.4,3.03,3.08-.03,1.64-1.37,2.97-3.04,2.97-1.69,0-3.05-1.38-3.03-3.06.02-1.63,1.34-2.98,3.04-2.99ZM154.72,42.55s.04,0,.05,0c.15,0,.29,0,.44-.02.15,0,.3-.03.45-.09.35-.14.6-.38.7-.75.06-.25.06-.5-.02-.75-.12-.38-.38-.63-.77-.72-.21-.05-.43-.06-.65-.07-.31,0-.62,0-.93,0-.02,0-.04,0-.06,0-.02.09-.01,4.07,0,4.13h.79v-1.74Z"/>
      <path class="cls-2" d="M154.72,42.55v1.74h-.79c-.01-.05-.02-4.04,0-4.13.02,0,.04,0,.06,0,.31,0,.62,0,.93,0,.22,0,.43.02.65.07.4.09.65.34.77.72.08.25.08.5.02.75-.09.37-.34.61-.7.75-.14.06-.3.08-.45.09-.15,0-.29.01-.44.02-.01,0-.03,0-.05,0ZM154.73,40.93v.84c.2,0,.39.01.58-.02.07-.01.14-.04.2-.09.12-.11.15-.26.11-.41-.03-.15-.13-.24-.28-.28-.2-.05-.4-.04-.61-.04Z"/>
      <path class="cls-1" d="M154.73,40.93c.21,0,.41-.01.61.04.15.04.25.13.28.28.03.16.01.3-.11.41-.06.05-.12.08-.2.09-.19.03-.38.02-.58.02v-.84Z"/>
    </g>
  </g>
</svg>